<svg width="1212" height="673" xmlns="http://www.w3.org/2000/svg" xmlns:xlink="http://www.w3.org/1999/xlink" xml:space="preserve" overflow="hidden"><g transform="translate(-1061 -856)"><path d="M1664.36 856.04 1891.83 1083.51 1821.57 1153.76 1594.1 926.295Z" fill="#C04F15" fill-rule="evenodd"/><path d="M1061.56 1458.22 1663.74 856.039 1733.99 926.294 1131.81 1528.48Z" fill="#C04F15" fill-rule="evenodd"/><rect x="1398" y="897" width="113" height="240" fill="#C04F15"/><path d="M1287.42 1502.89 1563.03 1227.28 1588.62 1252.87 1313.01 1528.48Z" fill="#C04F15" fill-rule="evenodd"/><path d="M1563.55 1227.28 1650.7 1314.43 1624.66 1340.48 1537.5 1253.33Z" fill="#C04F15" fill-rule="evenodd"/><path d="M1599.59 1314.43 1719.02 1195.01 1745.07 1221.05 1625.64 1340.48Z" fill="#C04F15" fill-rule="evenodd"/><path d="M1719.27 1195.01 1783.58 1259.31 1757.53 1285.36 1693.22 1221.05Z" fill="#C04F15" fill-rule="evenodd"/><path d="M1733.83 1261.55 2009.44 985.942 2035.03 1011.53 1759.42 1287.14Z" fill="#C04F15" fill-rule="evenodd"/><path d="M1990.99 989.786 2058.96 962.004 2031.18 1029.97Z" fill="#C04F15" fill-rule="evenodd"/><path d="M1940.16 1124.8 2272.18 1456.82 2201.93 1527.07 1869.91 1195.05Z" fill="#C04F15" fill-rule="evenodd"/></g></svg>